<svg width="119" height="29" fill="none" xmlns="http://www.w3.org/2000/svg"><path d="M14.8 29L8.96 18.4H7.32V29H.48V.92h11.48c2.213 0 4.093.387 5.64 1.16 1.573.773 2.747 1.84 3.52 3.2.773 1.333 1.16 2.827 1.16 4.48 0 1.867-.533 3.533-1.6 5-1.04 1.467-2.587 2.507-4.64 3.12L22.52 29H14.8zM7.32 13.56h4.24c1.253 0 2.187-.307 2.8-.92.64-.613.96-1.48.96-2.6 0-1.067-.32-1.907-.96-2.52-.613-.613-1.547-.92-2.8-.92H7.32v6.96zM33.414 6.4v5.68h9.16v5.28h-9.16v6.16h10.36V29h-17.2V.92h17.2V6.4h-10.36zm21.64 17.32h8.96V29h-15.8V.92h6.84v22.8zm29.703.32h-10.48L72.597 29h-7.16L75.597.92h7.92L93.677 29h-7.24l-1.68-4.96zm-1.76-5.28l-3.48-10.28-3.44 10.28h6.92zm35.172-8.8c0 1.627-.373 3.12-1.12 4.48-.747 1.333-1.893 2.413-3.44 3.24-1.547.827-3.467 1.24-5.76 1.24h-4.24V29h-6.84V.92h11.08c2.24 0 4.133.387 5.68 1.16 1.547.773 2.707 1.84 3.48 3.2.773 1.36 1.16 2.92 1.16 4.68zm-10.84 3.52c1.307 0 2.28-.307 2.92-.92.64-.613.96-1.48.96-2.6s-.32-1.987-.96-2.6c-.64-.613-1.613-.92-2.92-.92h-3.72v7.04h3.72z" fill="#fff"/></svg>