<svg width="119" height="29" viewBox="0 0 119 29" fill="none" xmlns="http://www.w3.org/2000/svg">
<path d="M14.8 29L8.96 18.4H7.32V29H0.48V0.919999H11.96C14.1733 0.919999 16.0533 1.30667 17.6 2.08C19.1733 2.85333 20.3467 3.92 21.12 5.28C21.8933 6.61333 22.28 8.10667 22.28 9.76C22.28 11.6267 21.7467 13.2933 20.68 14.76C19.64 16.2267 18.0933 17.2667 16.04 17.88L22.52 29H14.8ZM7.32 13.56H11.56C12.8133 13.56 13.7467 13.2533 14.36 12.64C15 12.0267 15.32 11.16 15.32 10.04C15.32 8.97333 15 8.13333 14.36 7.52C13.7467 6.90667 12.8133 6.6 11.56 6.6H7.32V13.56ZM33.4138 6.4V12.08H42.5738V17.36H33.4138V23.52H43.7738V29H26.5738V0.919999H43.7738V6.4H33.4138ZM55.0544 23.72H64.0144V29H48.2144V0.919999H55.0544V23.72ZM84.7569 24.04H74.2769L72.5969 29H65.4369L75.5969 0.919999H83.5169L93.6769 29H86.4369L84.7569 24.04ZM82.9969 18.76L79.5169 8.48L76.0769 18.76H82.9969ZM118.169 9.96C118.169 11.5867 117.796 13.08 117.049 14.44C116.302 15.7733 115.156 16.8533 113.609 17.68C112.062 18.5067 110.142 18.92 107.849 18.92H103.609V29H96.7691V0.919999H107.849C110.089 0.919999 111.982 1.30667 113.529 2.08C115.076 2.85333 116.236 3.92 117.009 5.28C117.782 6.64 118.169 8.2 118.169 9.96ZM107.329 13.48C108.636 13.48 109.609 13.1733 110.249 12.56C110.889 11.9467 111.209 11.08 111.209 9.96C111.209 8.84 110.889 7.97333 110.249 7.36C109.609 6.74667 108.636 6.44 107.329 6.44H103.609V13.48H107.329Z" fill="white"/>
</svg>
