<svg width="72" height="17" viewBox="0 0 72 17" fill="none" xmlns="http://www.w3.org/2000/svg">
<path d="M9.08 17L5.576 10.64H4.592V17H0.488V0.151999H7.376C8.704 0.151999 9.832 0.383999 10.76 0.847999C11.704 1.312 12.408 1.952 12.872 2.768C13.336 3.568 13.568 4.464 13.568 5.456C13.568 6.576 13.248 7.576 12.608 8.456C11.984 9.336 11.056 9.96 9.824 10.328L13.712 17H9.08ZM4.592 7.736H7.136C7.888 7.736 8.448 7.552 8.816 7.184C9.2 6.816 9.392 6.296 9.392 5.624C9.392 4.984 9.2 4.48 8.816 4.112C8.448 3.744 7.888 3.56 7.136 3.56H4.592V7.736ZM20.2483 3.44V6.848H25.7443V10.016H20.2483V13.712H26.4643V17H16.1443V0.151999H26.4643V3.44H20.2483ZM33.2326 13.832H38.6086V17H29.1286V0.151999H33.2326V13.832ZM51.0541 14.024H44.7661L43.7581 17H39.4621L45.5581 0.151999H50.3101L56.4061 17H52.0621L51.0541 14.024ZM49.9981 10.856L47.9101 4.688L45.8461 10.856H49.9981ZM71.1014 5.576C71.1014 6.552 70.8774 7.448 70.4294 8.264C69.9814 9.064 69.2934 9.712 68.3654 10.208C67.4374 10.704 66.2854 10.952 64.9094 10.952H62.3654V17H58.2614V0.151999H64.9094C66.2534 0.151999 67.3894 0.383999 68.3174 0.847999C69.2454 1.312 69.9414 1.952 70.4054 2.768C70.8694 3.584 71.1014 4.52 71.1014 5.576ZM64.5974 7.688C65.3814 7.688 65.9654 7.504 66.3494 7.136C66.7334 6.768 66.9254 6.248 66.9254 5.576C66.9254 4.904 66.7334 4.384 66.3494 4.016C65.9654 3.648 65.3814 3.464 64.5974 3.464H62.3654V7.688H64.5974Z" fill="#333333"/>
</svg>
