<svg width="72" height="17" fill="none" xmlns="http://www.w3.org/2000/svg"><path d="M9.08 17l-3.504-6.36h-.984V17H.488V.152h6.888c1.328 0 2.456.232 3.384.696.944.464 1.648 1.104 2.112 1.92.464.8.696 1.696.696 2.688 0 1.12-.32 2.12-.96 3-.624.88-1.552 1.504-2.784 1.872L13.712 17H9.08zM4.592 7.736h2.544c.752 0 1.312-.184 1.68-.552.384-.368.576-.888.576-1.56 0-.64-.192-1.144-.576-1.512-.368-.368-.928-.552-1.68-.552H4.592v4.176zM20.248 3.44v3.408h5.496v3.168h-5.496v3.696h6.216V17h-10.32V.152h10.32V3.44h-6.216zm12.985 10.392h5.376V17h-9.48V.152h4.104v13.68zm17.821.192h-6.288L43.758 17h-4.296L45.558.152h4.752L56.406 17h-4.344l-1.008-2.976zm-1.056-3.168L47.91 4.688l-2.064 6.168h4.152zm21.103-5.28c0 .976-.224 1.872-.672 2.688-.448.8-1.136 1.448-2.064 1.944-.928.496-2.08.744-3.456.744h-2.544V17h-4.104V.152h6.648c1.344 0 2.48.232 3.408.696.928.464 1.624 1.104 2.088 1.92.464.816.696 1.752.696 2.808zm-6.504 2.112c.784 0 1.368-.184 1.752-.552.384-.368.576-.888.576-1.56s-.192-1.192-.576-1.56c-.384-.368-.968-.552-1.752-.552h-2.232v4.224h2.232z" fill="#333"/></svg>